<?xml version="1.0" encoding="UTF-8" standalone="no"?>
<svg
   xmlns:dc="http://purl.org/dc/elements/1.1/"
   xmlns:cc="http://creativecommons.org/ns#"
   xmlns:rdf="http://www.w3.org/1999/02/22-rdf-syntax-ns#"
   xmlns:svg="http://www.w3.org/2000/svg"
   xmlns="http://www.w3.org/2000/svg"
   xmlns:sodipodi="http://sodipodi.sourceforge.net/DTD/sodipodi-0.dtd"
   xmlns:inkscape="http://www.inkscape.org/namespaces/inkscape"
   fill="#000000"
   height="24"
   viewBox="0 0 24 24"
   width="24"
   id="svg4399"
   version="1.1"
   inkscape:version="0.91 r13725"
   sodipodi:docname="ic-hdr-on-w.svg">
  <metadata
     id="metadata4409">
    <rdf:RDF>
      <cc:Work
         rdf:about="">
        <dc:format>image/svg+xml</dc:format>
        <dc:type
           rdf:resource="http://purl.org/dc/dcmitype/StillImage" />
      </cc:Work>
    </rdf:RDF>
  </metadata>
  <defs
     id="defs4407" />
  <sodipodi:namedview
     pagecolor="#ffffff"
     bordercolor="#666666"
     borderopacity="1"
     objecttolerance="10"
     gridtolerance="10"
     guidetolerance="10"
     inkscape:pageopacity="0"
     inkscape:pageshadow="2"
     inkscape:window-width="1920"
     inkscape:window-height="956"
     id="namedview4405"
     showgrid="false"
     inkscape:zoom="32.916667"
     inkscape:cx="12"
     inkscape:cy="12"
     inkscape:window-x="0"
     inkscape:window-y="0"
     inkscape:window-maximized="1"
     inkscape:current-layer="svg4399" />
  <path
     d="M0 0h24v24H0V0z"
     fill="none"
     id="path4401" />
  <path
     d="M21 11.5v-1c0-.8-.7-1.5-1.5-1.5H16v6h1.5v-2h1.1l.9 2H21l-.9-2.1c.5-.3.9-.8.9-1.4zm-1.5 0h-2v-1h2v1zm-13-.5h-2V9H3v6h1.5v-2.5h2V15H8V9H6.5v2zM13 9H9.5v6H13c.8 0 1.5-.7 1.5-1.5v-3c0-.8-.7-1.5-1.5-1.5zm0 4.5h-2v-3h2v3z"
     id="path4403"
     style="fill:#f9f9f9;fill-opacity:1" />
</svg>
